<svg xmlns="http://www.w3.org/2000/svg" xmlns:xlink="http://www.w3.org/1999/xlink" width="643.705" height="619.91" viewBox="0 0 643.705 619.91">
  <defs>
    <linearGradient id="linear-gradient" x1="-21.773" y1="5.391" x2="-20.62" y2="5.391" gradientUnits="objectBoundingBox">
      <stop offset="0" stop-color="#42e8e0"/>
      <stop offset="0.151" stop-color="#43e3e0"/>
      <stop offset="0.329" stop-color="#45d5df"/>
      <stop offset="0.52" stop-color="#49bddd"/>
      <stop offset="0.721" stop-color="#4e9cdb"/>
      <stop offset="0.927" stop-color="#5472d8"/>
      <stop offset="1" stop-color="#5761d7"/>
    </linearGradient>
    <linearGradient id="linear-gradient-2" x1="3.959" y1="23.605" x2="4.959" y2="23.605" xlink:href="#linear-gradient"/>
    <linearGradient id="linear-gradient-3" x1="3.014" y1="3.839" x2="3.014" y2="3.371" gradientUnits="objectBoundingBox">
      <stop offset="0" stop-color="#c0bff6"/>
      <stop offset="0.294" stop-color="#c5c4f7"/>
      <stop offset="0.64" stop-color="#d3d2f9"/>
      <stop offset="1" stop-color="#e9e9fd"/>
    </linearGradient>
    <linearGradient id="linear-gradient-4" x1="0.603" y1="0.5" x2="1.603" y2="0.5" xlink:href="#linear-gradient"/>
    <linearGradient id="linear-gradient-5" x1="0.126" y1="0.5" x2="1.125" y2="0.5" xlink:href="#linear-gradient-3"/>
    <linearGradient id="linear-gradient-6" x1="-4.11" y1="0.499" x2="-3.107" y2="0.499" gradientUnits="objectBoundingBox">
      <stop offset="0" stop-color="#5761d7"/>
      <stop offset="0.178" stop-color="#5c66d9"/>
      <stop offset="0.388" stop-color="#6a73df"/>
      <stop offset="0.613" stop-color="#8289e8"/>
      <stop offset="0.849" stop-color="#a3a7f5"/>
      <stop offset="1" stop-color="#bcbeff"/>
    </linearGradient>
    <linearGradient id="linear-gradient-7" x1="0.571" y1="0.499" x2="1.571" y2="0.499" xlink:href="#linear-gradient-6"/>
    <linearGradient id="linear-gradient-8" x1="0.906" y1="0.5" x2="1.906" y2="0.5" xlink:href="#linear-gradient-3"/>
    <linearGradient id="linear-gradient-9" x1="3.273" y1="0.502" x2="4.273" y2="0.502" xlink:href="#linear-gradient-3"/>
    <clipPath id="clip-path">
      <path id="Path_24" data-name="Path 24" d="M224.921,11.5,450.83,141.825,422.749,306.891,197.2,176.566Z" transform="translate(-197.2 -11.5)" opacity="0.11"/>
    </clipPath>
    <linearGradient id="linear-gradient-10" x1="0.142" y1="0.5" x2="1.142" y2="0.5" xlink:href="#linear-gradient-3"/>
    <linearGradient id="linear-gradient-11" x1="-1.554" y1="0.502" x2="-0.554" y2="0.502" xlink:href="#linear-gradient-3"/>
    <linearGradient id="linear-gradient-12" x1="2.317" y1="0.5" x2="3.317" y2="0.5" xlink:href="#linear-gradient"/>
    <linearGradient id="linear-gradient-13" x1="1.765" y1="-1.779" x2="2.92" y2="-1.779" xlink:href="#linear-gradient-6"/>
    <radialGradient id="radial-gradient" cx="0.766" cy="0.341" fx="0.31644943356513977" fy="0.17149198055267334" r="0.51" gradientTransform="matrix(-0.936, 0, 0, 1, 5.549, 0)" gradientUnits="objectBoundingBox">
      <stop offset="0" stop-color="#2b237c"/>
      <stop offset="1" stop-color="#180d5b"/>
    </radialGradient>
    <linearGradient id="linear-gradient-14" x1="2.421" y1="0.501" x2="3.422" y2="0.501" xlink:href="#linear-gradient-6"/>
    <linearGradient id="linear-gradient-15" x1="2.183" y1="-1.681" x2="3.339" y2="-1.681" xlink:href="#linear-gradient-3"/>
    <linearGradient id="linear-gradient-16" x1="2.841" y1="0.501" x2="3.841" y2="0.501" gradientUnits="objectBoundingBox">
      <stop offset="0" stop-color="#5761d7"/>
      <stop offset="0.073" stop-color="#5472d8"/>
      <stop offset="0.279" stop-color="#4e9cdb"/>
      <stop offset="0.48" stop-color="#49bddd"/>
      <stop offset="0.671" stop-color="#45d5df"/>
      <stop offset="0.849" stop-color="#43e3e0"/>
      <stop offset="1" stop-color="#42e8e0"/>
    </linearGradient>
    <linearGradient id="linear-gradient-17" x1="-1.117" y1="0.5" x2="-0.117" y2="0.5" xlink:href="#linear-gradient"/>
    <linearGradient id="linear-gradient-18" x1="0" y1="0.501" x2="1" y2="0.501" xlink:href="#linear-gradient"/>
    <linearGradient id="linear-gradient-19" x1="0.576" y1="0.89" x2="0.857" y2="0.111" xlink:href="#linear-gradient"/>
    <linearGradient id="linear-gradient-20" x1="1.704" y1="0.762" x2="2.594" y2="0.122" xlink:href="#linear-gradient-6"/>
    <linearGradient id="linear-gradient-21" x1="3.32" y1="0.684" x2="3.647" y2="0.255" xlink:href="#linear-gradient-3"/>
    <linearGradient id="linear-gradient-23" x1="0" y1="0.499" x2="1" y2="0.499" xlink:href="#linear-gradient"/>
    <linearGradient id="linear-gradient-24" y1="0.5" x2="0.713" y2="0.5" gradientUnits="objectBoundingBox">
      <stop offset="0.247" stop-color="#5761d7"/>
      <stop offset="0.436" stop-color="#6c74df"/>
      <stop offset="0.825" stop-color="#a2a6f5"/>
      <stop offset="1" stop-color="#bcbeff"/>
    </linearGradient>
    <linearGradient id="linear-gradient-25" x1="0" y1="0.5" x2="1" y2="0.5" xlink:href="#linear-gradient-3"/>
    <linearGradient id="linear-gradient-26" x1="-0.001" y1="0.5" x2="0.999" y2="0.5" xlink:href="#linear-gradient"/>
    <linearGradient id="linear-gradient-27" x1="0" y1="0.5" x2="0.999" y2="0.5" xlink:href="#linear-gradient"/>
    <linearGradient id="linear-gradient-28" x1="-0.002" y1="0.5" x2="1" y2="0.5" xlink:href="#linear-gradient"/>
    <linearGradient id="linear-gradient-29" x1="-0.001" y1="0.501" x2="0.999" y2="0.501" xlink:href="#linear-gradient"/>
    <linearGradient id="linear-gradient-30" x1="0" y1="0.501" x2="0.999" y2="0.501" xlink:href="#linear-gradient"/>
    <linearGradient id="linear-gradient-31" x1="-0.002" y1="0.501" x2="1" y2="0.501" xlink:href="#linear-gradient"/>
  </defs>
  <g id="login" transform="translate(-3.6 -3.819)">
    <path id="Path_1" data-name="Path 1" d="M190.179,160.577a1.623,1.623,0,0,1-.9-.18l-76.323-44.1a1.7,1.7,0,1,1,1.8-2.88l76.323,44.1a1.714,1.714,0,0,1,.54,2.34,2.222,2.222,0,0,1-1.44.72Z" transform="translate(86.852 87.477)" fill="url(#linear-gradient)"/>
    <path id="Path_2" data-name="Path 2" d="M137.345,260.1a1.623,1.623,0,0,1-.9-.18L4.5,183.055a1.908,1.908,0,0,1,0-3.24l120.965-65.7a1.853,1.853,0,1,1,1.8,3.24L9,181.615l129.245,75.243a1.993,1.993,0,0,1,.72,2.52,2.681,2.681,0,0,1-1.62.72Z" transform="translate(0 88.04)" fill="url(#linear-gradient-2)"/>
    <path id="Path_3" data-name="Path 3" d="M170.623,112.294l143.105,82.623c3.96,2.34,7.02-.18,7.02-5.4v-80.1c0-5.22-3.24-11.34-7.02-13.5L170.623,13.29c-3.96-2.34-7.02.18-7.02,5.4v80.1C163.423,104.014,166.663,109.954,170.623,112.294Z" transform="translate(128.008 6.875)" fill="url(#linear-gradient-3)"/>
    <path id="Path_4" data-name="Path 4" d="M333.048,336.208,122.62,214.7a4.963,4.963,0,0,1,0-8.64L253.305,130.64l1.08-.54L474.714,257.365a4.963,4.963,0,0,1,0,8.64L352.849,336.388a19.509,19.509,0,0,1-9.9,2.7,21.707,21.707,0,0,1-9.9-2.88ZM124.6,209.843a.9.9,0,0,0,0,1.44l210.428,121.5a15.6,15.6,0,0,0,15.841,0l121.865-70.383a.9.9,0,0,0,0-1.44l-218.348-126L124.6,209.843Z" transform="translate(93.208 101.034)" fill="url(#linear-gradient-4)"/>
    <path id="Path_5" data-name="Path 5" d="M194.524,181.092,223.866,7.205l-2.34-1.08,3.6-1.98c.72-.54,1.62-.36,2.7.18L462.195,139.51a6.434,6.434,0,0,1,3.06,5.94L435.734,320.777a2.277,2.277,0,0,1-1.26,1.8l-3.42,1.98-.54-3.24h.18L197.765,186.852a5.847,5.847,0,0,1-3.24-5.76Z" transform="translate(152.709 0)" fill="url(#linear-gradient-5)"/>
    <path id="Path_6" data-name="Path 6" d="M361.042,82.62l3.78-1.62a5.488,5.488,0,0,1,.54,2.88L335.841,259.207a2.277,2.277,0,0,1-1.26,1.8l-3.42,1.98-.54-3.24h.18l-11.7-6.84Z" transform="translate(252.422 61.75)" fill="url(#linear-gradient-6)"/>
    <path id="Path_7" data-name="Path 7" d="M195.585,188.233,429.954,323.418c1.8,1.08,3.42.36,3.6-1.44l29.521-175.327a6.434,6.434,0,0,0-3.06-5.94L225.646,5.526c-1.8-1.08-3.42-.36-3.6,1.44L192.525,182.292C192.165,184.272,193.6,186.973,195.585,188.233Z" transform="translate(151.108 0.959)" fill="#24126a"/>
    <path id="Path_8" data-name="Path 8" d="M224.921,11.5,450.83,141.825,422.749,306.891,197.2,176.566Z" transform="translate(154.893 6.145)" fill="#453c9e" opacity="0.51"/>
    <path id="Path_9" data-name="Path 9" d="M112.4,183.2l12.78,6.66,128.165-73.983c2.16-1.26,5.94-1.08,8.28.36L482.674,243.859c2.16-1.26,11.7-5.76,11.7-5.76l-4.68,12.24a2.407,2.407,0,0,1-1.26,1.44L353.429,329.723c-2.16,1.26-5.94,1.08-8.28-.36L118.88,198.5a4.186,4.186,0,0,1-1.98-1.98Z" transform="translate(87.048 88.978)" fill="url(#linear-gradient-7)"/>
    <path id="Path_10" data-name="Path 10" d="M114.464,192.138,346.313,326.063a9.765,9.765,0,0,0,8.64.36L493.379,246.5c2.16-1.26,1.98-3.42-.54-5.04L260.99,107.535a9.765,9.765,0,0,0-8.64-.36L113.924,187.1c-2.34,1.44-2.16,3.6.54,5.04Z" transform="translate(86.963 82.017)" fill="url(#linear-gradient-8)"/>
    <path id="Path_11" data-name="Path 11" d="M114.42,154.26,346.269,288.185a9.765,9.765,0,0,0,8.64.36l138.425-79.923a2.407,2.407,0,0,0,1.26-1.44,2.32,2.32,0,0,1-1.26,2.88L354.91,289.985c-2.16,1.26-6.12,1.08-8.64-.36L114.42,155.52c-1.62-.9-2.34-2.34-1.98-3.42A4.34,4.34,0,0,0,114.42,154.26Z" transform="translate(87.007 118.635)" fill="#fff"/>
    <path id="Path_12" data-name="Path 12" d="M291.521,213.533v-2.52c0-.18-.18-.36-.36-.18l-9,5.22c-.18.18-.36.36-.36.54v2.52c0,.18.18.36.36.18l9-5.22C291.341,214.073,291.521,213.893,291.521,213.533Zm-13.5,7.74v-2.52c0-.18-.18-.36-.36-.18l-9,5.22c-.18.18-.36.36-.36.54v2.52c0,.18.18.36.36.18l9-5.22C277.84,221.814,278.02,221.634,278.02,221.274Z" transform="translate(211.778 165.566)" fill="#2842a2"/>
    <path id="Path_13" data-name="Path 13" d="M422.21,229.784,229.423,118.54a4.238,4.238,0,0,0-4.14,0L156.7,158.322a1.514,1.514,0,0,0,0,2.52L349.307,272.086a4.238,4.238,0,0,0,4.14,0l68.763-39.6A1.686,1.686,0,0,0,422.21,229.784Z" transform="translate(121.951 91.353)" fill="#adb1f2"/>
    <path id="Path_14" data-name="Path 14" d="M422.21,232.3l-.72.36L229.423,121.78a4.238,4.238,0,0,0-4.14,0L157.42,161.2l-.72-.36a1.514,1.514,0,0,1,0-2.52l68.583-39.782a4.238,4.238,0,0,1,4.14,0L422.21,229.784A1.514,1.514,0,0,1,422.21,232.3Z" transform="translate(121.951 91.353)" fill="#9198db"/>
    <path id="Path_15" data-name="Path 15" d="M215.522,125.64,382.928,222.3l7.56-4.32L223.082,121.5Zm-18.181,10.62,156.966,90.724,7.56-4.32L204.722,131.94Zm-11.88,6.84L370.328,249.845l7.38-4.32L192.841,138.781Zm-11.88,6.84L358.448,256.685l7.38-4.32L180.961,145.621Zm-11.88,6.84L346.567,263.525l7.38-4.32L169.08,152.461Zm231.489,71.463,7.38,4.32,7.38-4.32-7.38-4.32Zm-26.281,5.94L382.388,243l7.38-4.32-15.481-8.82Z" transform="translate(126.491 94.153)" fill="#24126a"/>
    <path id="Path_16" data-name="Path 16" d="M216.482,219.822,164.46,189.761c-1.98-1.26-1.98-3.06,0-4.32l35.461-20.521a7.677,7.677,0,0,1,7.38,0l52.022,30.061c1.98,1.26,1.98,3.06,0,4.32l-35.461,20.521A7.677,7.677,0,0,1,216.482,219.822Z" transform="translate(127.511 128.136)" fill="url(#linear-gradient-9)"/>
    <path id="Path_17" data-name="Path 17" d="M259.33,196.7,207.308,166.64a7.677,7.677,0,0,0-7.38,0l-35.461,20.7a2.836,2.836,0,0,0-1.26,1.26c-.54-1.08-.18-2.16,1.26-3.06l35.461-20.521a7.677,7.677,0,0,1,7.38,0l52.022,30.061c1.44.9,1.8,1.98,1.26,3.06A2.408,2.408,0,0,0,259.33,196.7Z" transform="translate(127.505 128.216)" fill="#9198db"/>
    <g id="Group_2" data-name="Group 2" transform="translate(352.093 17.645)" opacity="0.11">
      <g id="Group_1" data-name="Group 1" clip-path="url(#clip-path)">
        <path id="Path_18" data-name="Path 18" d="M195.518,144.958,427.366,278.883a9.765,9.765,0,0,0,8.64.36L574.432,199.32c2.16-1.26,1.98-3.42-.54-5.04L341.863,60.535a9.765,9.765,0,0,0-8.64-.36L194.8,140.1c-1.98,1.26-1.8,3.42.72,4.86Z" transform="translate(-200.198 26.769)" fill="url(#linear-gradient-10)"/>
        <path id="Path_19" data-name="Path 19" d="M347.682,145.122,295.66,115.061c-1.98-1.26-1.98-3.06,0-4.32L331.121,90.22a7.677,7.677,0,0,1,7.38,0l52.022,30.061c1.98,1.26,1.98,3.06,0,4.32l-35.461,20.521A8.808,8.808,0,0,1,347.682,145.122Z" transform="translate(-119.613 50.725)" fill="url(#linear-gradient-11)"/>
        <path id="Path_20" data-name="Path 20" d="M390.53,122.081,338.508,92.02a7.677,7.677,0,0,0-7.38,0l-35.461,20.521a2.837,2.837,0,0,0-1.26,1.26c-.54-1.08-.18-2.16,1.26-3.06L331.127,90.22a7.677,7.677,0,0,1,7.38,0l52.022,30.061c1.44.9,1.8,1.98,1.26,3.06A2.836,2.836,0,0,0,390.53,122.081Z" transform="translate(-119.619 50.725)" fill="#9198db"/>
        <path id="Path_21" data-name="Path 21" d="M478.71,195.984,285.923,84.74a4.238,4.238,0,0,0-4.14,0L213.2,124.522a1.514,1.514,0,0,0,0,2.52L405.807,238.286a4.238,4.238,0,0,0,4.14,0l68.763-39.6A1.686,1.686,0,0,0,478.71,195.984Z" transform="translate(-184.939 46.665)" fill="#adb1f2"/>
        <path id="Path_22" data-name="Path 22" d="M478.71,198.5l-.72.54L285.923,88.16a4.238,4.238,0,0,0-4.14,0L213.92,127.4l-.72-.36a1.514,1.514,0,0,1,0-2.52L281.783,84.74a4.238,4.238,0,0,1,4.14,0L478.71,195.984A1.514,1.514,0,0,1,478.71,198.5Z" transform="translate(-184.939 46.665)" fill="#9198db"/>
        <path id="Path_23" data-name="Path 23" d="M225.68,118.221l167.946,96.844-6.66,3.78L219.2,122Zm17.821-10.26,159.486,92.164-6.66,3.78L236.841,111.741Zm171.547,99,14.761,8.64-6.66,3.78-14.761-8.64Zm-13.32,12.781,10.44,5.94-6.66,3.96-10.44-5.94ZM254.481,101.48,440.969,209.125l-6.66,3.96L247.821,105.441Zm11.16-6.3L451.949,202.824l-6.48,3.78L258.982,98.96ZM276.8,88.7,463.109,196.344l-6.66,3.78L270.142,92.66Z" transform="translate(-179.598 50.265)" fill="#24126a"/>
      </g>
    </g>
    <path id="Path_25" data-name="Path 25" d="M332.741,92.66l4.5,2.88.54-3.24-4.5-2.88Zm-3.6,22.5,4.5,2.7L336.7,98.6l-4.5-2.88Zm-1.8,10.62,4.5,2.88,1.26-7.74-4.5-2.88Zm-1.8,11.16,4.5,2.7,1.26-7.56-4.5-2.88Zm-1.26-37.8,4.5,2.88,1.26-7.74-4.5-2.7ZM321.94,113.9l4.5,2.88,1.8-11.34-4.5-2.88Zm-2.16,13.5,4.5,2.88,1.44-9.72-4.32-2.88Zm3.96,20.521,4.5,2.88,1.26-7.74-4.5-2.88Zm2.34-59.4,4.5,2.88.54-3.42-4.5-2.88Zm-7.38,68.043,7.74,5.04.54-3.24-7.74-5.04Z" transform="translate(252.102 65.031)" fill="#42e8e0"/>
    <path id="Path_26" data-name="Path 26" d="M247.447,322.419,66.36,217.835a4.108,4.108,0,0,1-2.16-3.42c0-1.62,1.08-3.06,2.88-4.14L104.7,188.494c2.88-1.62,7.02-1.8,9.54-.36L295.329,292.718a4.108,4.108,0,0,1,2.16,3.42c0,1.62-1.08,3.06-2.88,4.14l-37.621,21.781a10.872,10.872,0,0,1-5.4,1.26A6.434,6.434,0,0,1,247.447,322.419ZM106.322,191.554,68.7,213.335c-.9.54-1.08.9-1.08,1.08a2.227,2.227,0,0,0,.54.36L249.247,319.359c1.44.9,4.32.72,6.12-.36l37.621-21.781c.9-.54,1.08-.9,1.08-1.08a2.228,2.228,0,0,0-.54-.36L112.442,191.194a5.75,5.75,0,0,0-2.52-.54A7.611,7.611,0,0,0,106.322,191.554Z" transform="translate(48.484 146.684)" fill="url(#linear-gradient-12)"/>
    <path id="Path_27" data-name="Path 27" d="M119.741,157.3a58.566,58.566,0,0,1,13.321,11.16c5.58-17.821,22.5-23.4,42.662-11.88,16.561,9.54,31.141,28.441,38.7,48.422a16.014,16.014,0,0,1,8.28,2.7c10.8,6.3,19.621,21.421,19.621,34.021v.72a22.376,22.376,0,0,1,10.08,3.42c13.861,7.92,25.021,27.541,25.021,43.382,0,16.021-11.16,22.5-25.021,14.4l-132.665-76.5C103,217.419,89.5,194.018,89.5,174.577s13.5-27,30.241-17.281Z" transform="translate(68.726 117.399)" fill="url(#linear-gradient-13)"/>
    <path id="Path_28" data-name="Path 28" d="M119.9,157.34a59.012,59.012,0,0,1,7.92,5.76l14.761-8.64c8.1-5.76,19.981-5.4,33.121,2.16,16.561,9.54,31.141,28.441,38.7,48.422a16.014,16.014,0,0,1,8.28,2.7c10.8,6.3,19.621,21.421,19.621,34.021v.72a22.375,22.375,0,0,1,10.08,3.42c13.861,7.92,25.021,27.541,25.021,43.382,0,7.92-2.7,13.5-7.2,16.2h-.18l-36.361,21.061-7.92-38.161-106.2-61.2C102.8,217.462,89.3,194.062,89.3,174.621c.18-19.081,13.861-27,30.6-17.281Z" transform="translate(68.566 117.355)" fill="url(#radial-gradient)"/>
    <path id="Path_29" data-name="Path 29" d="M73.8,176.781l36.9-21.421c5.58-3.24,13.141-2.88,21.6,1.98a59.01,59.01,0,0,1,7.92,5.76l14.761-8.64c8.1-5.76,19.981-5.4,33.121,2.16,16.561,9.54,31.141,28.441,38.7,48.422a16.014,16.014,0,0,1,8.28,2.7c10.8,6.3,19.621,21.421,19.621,34.021v.72a22.376,22.376,0,0,1,10.08,3.42c13.861,7.92,25.021,27.541,25.021,43.382,0,7.92-2.7,13.5-7.2,16.2h-.18l-36.361,21.061-7.92-38.161-106.2-61.2c-13.5-7.92-25.021-24.841-28.981-41.222L73.8,176.781Z" transform="translate(56.165 117.355)" fill="url(#linear-gradient-14)"/>
    <path id="Path_30" data-name="Path 30" d="M99.441,169.1a58.566,58.566,0,0,1,13.321,11.16c5.58-17.821,22.5-23.4,42.662-11.88,16.561,9.54,31.141,28.441,38.7,48.422a16.014,16.014,0,0,1,8.28,2.7c10.8,6.3,19.621,21.421,19.621,34.021v.72a22.375,22.375,0,0,1,10.08,3.42c13.861,7.92,25.021,27.541,25.021,43.382,0,16.021-11.16,22.5-25.021,14.4l-132.665-76.5C82.7,229.219,69.2,205.818,69.2,186.377,69.2,167.116,82.7,159.376,99.441,169.1Z" transform="translate(52.485 126.84)" fill="url(#linear-gradient-15)"/>
    <path id="Path_31" data-name="Path 31" d="M107.981,180.988a51.763,51.763,0,0,0-13.321-11.16c-8.1-4.68-15.661-5.22-21.061-2.34,5.58-3.78,13.5-3.42,22.321,1.62a48.676,48.676,0,0,1,12.6,10.44A12.4,12.4,0,0,0,107.981,180.988ZM252.527,301.773c0-16.021-11.16-35.461-25.021-43.382a22.375,22.375,0,0,0-10.08-3.42v-.72c0-12.6-8.82-27.721-19.621-34.021a18.539,18.539,0,0,0-8.28-2.7c-7.74-19.981-22.141-38.882-38.7-48.422-12.06-7.02-23.221-7.74-31.141-3.24,8.1-5.22,19.621-4.86,32.4,2.52,16.561,9.54,31.141,28.441,38.7,48.422a16.014,16.014,0,0,1,8.28,2.7c10.8,6.3,19.621,21.421,19.621,34.021v.72a22.375,22.375,0,0,1,10.08,3.42c13.861,7.92,25.021,27.541,25.021,43.382,0,8.28-2.88,13.861-7.74,16.381C250.007,314.733,252.527,309.333,252.527,301.773Z" transform="translate(56.005 126.828)" fill="#fff"/>
    <path id="Path_32" data-name="Path 32" d="M269.683,311.1l3.24-2.16L182.2,254.4l-1.8,3.06Z" transform="translate(141.452 200.482)" fill="url(#linear-gradient-16)"/>
    <path id="Path_33" data-name="Path 33" d="M319.439,334.942a1.89,1.89,0,0,1-1.62-.9,1.821,1.821,0,0,1,.72-2.52l77.223-41.942L283.8,224.417a1.853,1.853,0,0,1,1.8-3.24L400.262,287.96a1.908,1.908,0,0,1,0,3.24l-80.1,43.382a.935.935,0,0,1-.72.36Z" transform="translate(223.462 173.763)" fill="url(#linear-gradient-17)"/>
    <path id="Path_34" data-name="Path 34" d="M327.665,417.046a1.622,1.622,0,0,1-.9-.18L195.9,341.263a1.908,1.908,0,0,1,0-3.24l130.865-75.6a1.635,1.635,0,0,1,1.8,0l130.865,75.6a1.908,1.908,0,0,1,0,3.24l-130.865,75.6A1.957,1.957,0,0,1,327.665,417.046ZM200.4,339.823l127.265,73.443L454.93,339.823,327.665,266.38,200.4,339.823Z" transform="translate(153.133 206.683)" fill="url(#linear-gradient-18)"/>
    <path id="Path_35" data-name="Path 35" d="M307.343,377.664l86.763-50.042L307.343,277.4,220.4,327.622Z" transform="translate(173.455 218.884)" fill="url(#linear-gradient-19)"/>
    <path id="Path_60" data-name="Path 60" d="M214.9,38.1l84.063,48.6c3.96,2.34,7.02,8.28,7.02,13.5v80.1c0,5.22-3.24,7.56-7.02,5.4L199.6,128.463,214.9,38.1Z" transform="translate(156.814 27.427)" fill="#24126a"/>
    <path id="Path_61" data-name="Path 61" d="M164.8,14.3l4.14-2.88a4.329,4.329,0,0,1,5.04.18L317.086,94.223c3.96,2.34,7.02,8.28,7.02,13.5v80.1c0,2.7-.9,4.68-2.34,5.58l-4.32,3.06-.18-3.06c-.18,0-.18-.18-.36-.18L173.8,110.6c-3.96-2.34-7.02-8.28-7.02-13.5V16.82a8.765,8.765,0,0,1,.18-2.16l-2.16-.36Z" transform="translate(128.971 5.505)" fill="url(#linear-gradient-20)"/>
    <path id="Path_62" data-name="Path 62" d="M274.042,66.56l-37.8,21.781-9.54-5.4L269.542,58.1A16.158,16.158,0,0,1,274.042,66.56Z" transform="translate(178.495 43.429)" fill="url(#linear-gradient-21)"/>
    <path id="Path_63" data-name="Path 63" d="M170.623,112.294l143.105,82.623c3.96,2.34,7.02-.18,7.02-5.4v-80.1c0-5.22-3.24-11.34-7.02-13.5L170.623,13.29c-3.96-2.34-7.02.18-7.02,5.4v80.1C163.423,104.014,166.663,109.954,170.623,112.294Z" transform="translate(128.008 6.875)" fill="url(#linear-gradient-3)"/>
    <path id="Path_64" data-name="Path 64" d="M318.966,189.857v-80.1c0-5.22-3.24-11.34-7.02-13.5L168.84,13.631c-1.62-.9-2.88-1.08-4.14-.54a4.363,4.363,0,0,1,4.86.18L312.666,95.894c3.96,2.34,7.02,8.28,7.02,13.5v80.1c0,3.24-1.08,5.22-2.88,5.94,1.44-.9,2.16-2.88,2.16-5.58Z" transform="translate(128.891 6.895)" fill="#fff"/>
    <path id="Path_65" data-name="Path 65" d="M175.76,49.9l116.825,67.323c.9.54,1.62.72,2.16,0V99.043a4.676,4.676,0,0,0-1.8-3.6L175.22,27.58c-.18,0-.18-.18-.36-.18-.9.18-.9.9-.9,2.16l-.36,16.921a5.669,5.669,0,0,0,2.16,3.42Zm-.18,38.341,117,67.323c.9.54,1.98,1.08,2.16,0V137.384a4.676,4.676,0,0,0-1.8-3.6L175.22,65.921c-.18,0-.18-.18-.36-.18-.9-.36-1.08.9-1.08,2.16V84.642A4.19,4.19,0,0,0,175.58,88.242Z" transform="translate(136.012 18.867)" fill="#5761d7"/>
    <path id="Path_66" data-name="Path 66" d="M175.12,27.449V45.629a4.676,4.676,0,0,0,1.8,3.6l117.724,67.863c.18,0,.18,0,.36.18-.18,1.08-.9,1.44-1.8.9L175.3,50.13a4.19,4.19,0,0,1-1.8-3.6V28.889c0-1.26.72-1.8,1.62-1.44Zm0,38.521V84.151a4.676,4.676,0,0,0,1.8,3.6l117.724,67.863c.18,0,.18,0,.36.18-.18,1.08-.9,1.44-1.8.9L175.48,88.831a4.19,4.19,0,0,1-1.8-3.6V67.59c-.18-1.26.54-1.98,1.44-1.62Z" transform="translate(135.932 18.818)" fill="#fff"/>
    <path id="Path_67" data-name="Path 67" d="M248.442,80.682l-1.44,2.7-2.7-3.42,2.16-2.16-3.06-3.24,1.08-2.7,2.88,3.42-.36-4.14,3.42,1.98-.36,3.6,2.88-.18,1.08,3.78-3.06-.36,1.98,4.5-2.7.36-1.8-4.14Zm-13.5-7.74-1.44,2.7-2.7-3.42,2.16-2.16-3.06-3.24,1.08-2.7,2.88,3.42-.36-4.14,3.42,1.98-.36,3.6,2.88-.18,1.08,3.78-3.06-.36,1.98,4.5-2.7.36-1.8-4.14Zm-13.5-7.92-1.44,2.7-2.7-3.42,2.16-2.16L216.4,58.9l1.08-2.7,2.88,3.42-.36-4.14,3.42,1.98-.36,3.6,2.88-.18,1.08,3.78-3.06-.36,1.98,4.5-2.7.36-1.8-4.14Zm-13.5-7.74-1.44,2.7-2.7-3.42,2.16-2.16-3.06-3.24,1.08-2.7,2.88,3.42-.36-4.14,3.42,1.98-.36,3.6,2.88-.18,1.08,3.78-3.06-.36,1.98,4.5-2.7.36-1.8-4.14Zm-13.5-7.74L193,52.24l-2.7-3.42,2.16-2.16-3.06-3.24,1.08-2.7,2.88,3.42L193,40l3.42,1.98-.36,3.6,2.88-.18,1.08,3.78-3.06-.36,1.98,4.5-2.7.36-1.8-4.14Zm54,69.663L247,121.9l-2.7-3.42,2.16-2.16-3.06-3.24,1.08-2.7,2.88,3.42-.36-4.14,3.42,1.98-.36,3.6,2.88-.18,1.08,3.78-3.06-.36,1.98,4.5-2.7.36-1.8-4.14Zm-13.5-7.74-1.44,2.7-2.7-3.42,2.16-2.16-3.06-3.24,1.08-2.7,2.88,3.42-.36-4.14,3.42,1.98-.36,3.6,2.88-.18,1.08,3.78-3.06-.36,1.62,4.86-2.7.36-1.44-4.5Zm-13.5-7.74-1.44,2.7L217.3,103l2.16-2.16L216.4,97.6l1.08-2.7,2.88,3.42-.36-4.14,3.42,1.98-.36,3.6,2.88-.18,1.08,3.78-3.06-.36,1.98,4.5-2.7.36-1.8-4.14Zm-13.5-7.92-1.44,2.7-2.7-3.42,2.16-2.16-3.06-3.24,1.08-2.7,2.88,3.42-.36-4.14,3.42,1.98-.36,3.6,2.88-.18,1.08,3.78-3.06-.36,1.98,4.5-2.7.36-1.8-4.14Zm-13.5-7.74-1.44,2.7-2.7-3.42,2.16-2.16-3.06-3.24,1.08-2.7,2.88,3.42-.36-4.14,3.42,1.98-.36,3.6,2.88-.18,1.08,3.78-3.06-.36,1.98,4.5-2.7.36-1.8-4.14Z" transform="translate(148.653 28.947)" fill="#fff"/>
    <path id="Path_68" data-name="Path 68" d="M205.241,290.16l-17.821,10.26L169.6,290.16l17.821-10.26Z" transform="translate(132.811 220.884)" fill="#4846a5" opacity="0.3"/>
    <path id="Path_69" data-name="Path 69" d="M273.444,367.191l-17.821,10.26L237.8,367.191l17.821-10.26Zm-79.2-273.43-17.821,10.26L158.6,93.76,176.421,83.5Z" transform="translate(124.011 63.75)" fill="#4846a5" opacity="0.1"/>
    <path id="Path_70" data-name="Path 70" d="M339.189,361.969l-18,10.26-17.821-10.26,17.821-10.44ZM557,304.727l-17.821,10.26-17.821-10.26,17.821-10.26ZM137.041,143.62l-17.821,10.26L101.4,143.62l17.821-10.26Zm432.017-.36L551.237,153.7l-17.821-10.44L551.237,133Z" transform="translate(78.247 103.354)" fill="#4846a5" opacity="0.3"/>
    <path id="Path_71" data-name="Path 71" d="M72.041,153.46,54.221,163.9,36.4,153.46,54.221,143.2Z" transform="translate(26.242 111.515)" fill="#4846a5" opacity="0.1"/>
    <path id="Path_72" data-name="Path 72" d="M126.683,168.564a5.256,5.256,0,0,1-1.62-.36L49.82,124.822a3.054,3.054,0,0,1-1.62-2.88,3.459,3.459,0,0,1,1.62-2.88L125.063,75.68a3.438,3.438,0,0,1,3.24,0l75.243,43.382a3.054,3.054,0,0,1,1.62,2.88,3.459,3.459,0,0,1-1.62,2.88L128.3,168.2a5.256,5.256,0,0,1-1.62.36ZM126.863,164.963Zm-74.7-43.2,74.523,43.022,74.523-43.022L126.683,78.74,52.16,121.762Z" transform="translate(35.683 57.17)" fill="url(#linear-gradient-23)"/>
    <path id="Path_73" data-name="Path 73" d="M189.565,98.481V84.8l-67.683,37.441L54.2,84.8V98.481l67.683,39.062Z" transform="translate(40.483 64.79)" fill="url(#linear-gradient-24)"/>
    <path id="Path_74" data-name="Path 74" d="M121.883,141.223,54.2,102.161,121.883,63.1l67.683,39.061Z" transform="translate(40.483 47.429)" fill="url(#linear-gradient-25)"/>
    <path id="Path_75" data-name="Path 75" d="M121.883,123.021,55.1,84.5l-.9.54L121.883,124.1,189.565,85.04l-.9-.54Z" transform="translate(40.483 64.55)" fill="#fff" opacity="0.5"/>
    <path id="Path_76" data-name="Path 76" d="M110.362,119.642,68.6,95.521,110.362,71.4,152.3,95.521Z" transform="translate(52.004 54.07)" fill="#0f054c"/>
    <path id="Path_77" data-name="Path 77" d="M110.362,119.642,68.6,95.521,110.362,71.4,152.3,95.521Z" transform="translate(52.004 54.07)" opacity="0.5" fill="url(#linear-gradient-26)"/>
    <path id="Path_78" data-name="Path 78" d="M91.8,52.6l41.942,24.121v33.841L91.8,86.441Z" transform="translate(70.566 39.028)" opacity="0.5" fill="url(#linear-gradient-27)"/>
    <path id="Path_79" data-name="Path 79" d="M110.362,86.441,68.6,110.562V76.721L110.362,52.6Z" transform="translate(52.004 39.028)" opacity="0.5" fill="url(#linear-gradient-28)"/>
    <path id="Path_80" data-name="Path 80" d="M110.362,100.842,68.6,76.721,110.362,52.6,152.3,76.721Z" transform="translate(52.004 39.028)" opacity="0.5" fill="url(#linear-gradient-29)"/>
    <path id="Path_81" data-name="Path 81" d="M91.8,90.121v33.841l41.942-24.121V66Z" transform="translate(70.566 49.749)" opacity="0.5" fill="url(#linear-gradient-30)"/>
    <path id="Path_82" data-name="Path 82" d="M68.6,66V99.841l41.762,24.121V90.121Z" transform="translate(52.004 49.749)" opacity="0.5" fill="url(#linear-gradient-31)"/>
  </g>
</svg>
